<mxfile host="app.diagrams.net" modified="2023-11-28T06:44:24.888Z" agent="Mozilla/5.0 (Windows NT 10.0; Win64; x64) AppleWebKit/537.36 (KHTML, like Gecko) Chrome/119.0.0.0 Safari/537.36 Edg/119.0.0.0" etag="E6Qmm4Cr0bVxZz1IBOnj" version="22.1.4" type="github">
  <diagram name="Страница — 1" id="DW_KyMR2rjuOUO8UWQdG">
    <mxGraphModel dx="1307" dy="563" grid="1" gridSize="10" guides="1" tooltips="1" connect="1" arrows="1" fold="1" page="1" pageScale="1" pageWidth="827" pageHeight="1169" math="0" shadow="0">
      <root>
        <mxCell id="0" />
        <mxCell id="1" parent="0" />
        <mxCell id="iM0jPdQqgRtytacEko40-1" value="Начало" style="rounded=1;whiteSpace=wrap;html=1;arcSize=50;" parent="1" vertex="1">
          <mxGeometry x="240" y="10" width="120" height="30" as="geometry" />
        </mxCell>
        <mxCell id="iM0jPdQqgRtytacEko40-2" value="" style="endArrow=classic;html=1;rounded=0;exitX=0.5;exitY=1;exitDx=0;exitDy=0;" parent="1" source="iM0jPdQqgRtytacEko40-1" target="iM0jPdQqgRtytacEko40-3" edge="1">
          <mxGeometry width="50" height="50" relative="1" as="geometry">
            <mxPoint x="360" y="90" as="sourcePoint" />
            <mxPoint x="380" y="80" as="targetPoint" />
          </mxGeometry>
        </mxCell>
        <mxCell id="iM0jPdQqgRtytacEko40-3" value="Выводим надпись пользователю, чтобы он выбрал пользователя" style="shape=parallelogram;perimeter=parallelogramPerimeter;whiteSpace=wrap;html=1;fixedSize=1;" parent="1" vertex="1">
          <mxGeometry x="160" y="60" width="280" height="60" as="geometry" />
        </mxCell>
        <mxCell id="iM0jPdQqgRtytacEko40-11" value="" style="edgeStyle=orthogonalEdgeStyle;rounded=0;orthogonalLoop=1;jettySize=auto;html=1;" parent="1" source="iM0jPdQqgRtytacEko40-4" target="iM0jPdQqgRtytacEko40-10" edge="1">
          <mxGeometry relative="1" as="geometry" />
        </mxCell>
        <mxCell id="iM0jPdQqgRtytacEko40-4" value="&lt;font style=&quot;font-size: 14px;&quot;&gt;user1&lt;/font&gt;" style="rhombus;whiteSpace=wrap;html=1;" parent="1" vertex="1">
          <mxGeometry x="240" y="140" width="120" height="90" as="geometry" />
        </mxCell>
        <mxCell id="iM0jPdQqgRtytacEko40-5" value="" style="endArrow=classic;html=1;rounded=0;entryX=0.5;entryY=0;entryDx=0;entryDy=0;exitX=0.5;exitY=1;exitDx=0;exitDy=0;" parent="1" source="iM0jPdQqgRtytacEko40-3" target="iM0jPdQqgRtytacEko40-4" edge="1">
          <mxGeometry width="50" height="50" relative="1" as="geometry">
            <mxPoint x="360" y="230" as="sourcePoint" />
            <mxPoint x="410" y="180" as="targetPoint" />
          </mxGeometry>
        </mxCell>
        <mxCell id="TD08Gxz-DztOjU-eSoD3-2" value="" style="edgeStyle=orthogonalEdgeStyle;rounded=0;orthogonalLoop=1;jettySize=auto;html=1;" edge="1" parent="1" source="iM0jPdQqgRtytacEko40-10" target="TD08Gxz-DztOjU-eSoD3-1">
          <mxGeometry relative="1" as="geometry" />
        </mxCell>
        <mxCell id="iM0jPdQqgRtytacEko40-10" value="Переносим пользователя в папку user1" style="whiteSpace=wrap;html=1;" parent="1" vertex="1">
          <mxGeometry x="20" y="155" width="120" height="60" as="geometry" />
        </mxCell>
        <mxCell id="iM0jPdQqgRtytacEko40-35" value="Конец" style="rounded=1;whiteSpace=wrap;html=1;arcSize=50;" parent="1" vertex="1">
          <mxGeometry x="300" y="840" width="120" height="30" as="geometry" />
        </mxCell>
        <mxCell id="iM0jPdQqgRtytacEko40-40" value="Да" style="text;html=1;align=center;verticalAlign=middle;resizable=0;points=[];autosize=1;strokeColor=none;fillColor=none;" parent="1" vertex="1">
          <mxGeometry x="180" y="155" width="40" height="30" as="geometry" />
        </mxCell>
        <mxCell id="TD08Gxz-DztOjU-eSoD3-4" value="" style="edgeStyle=orthogonalEdgeStyle;rounded=0;orthogonalLoop=1;jettySize=auto;html=1;" edge="1" parent="1" source="TD08Gxz-DztOjU-eSoD3-1" target="TD08Gxz-DztOjU-eSoD3-3">
          <mxGeometry relative="1" as="geometry" />
        </mxCell>
        <mxCell id="TD08Gxz-DztOjU-eSoD3-1" value="Выводим надпись&lt;br style=&quot;border-color: var(--border-color);&quot;&gt;&quot;Welcome, user2&quot;" style="shape=parallelogram;perimeter=parallelogramPerimeter;whiteSpace=wrap;html=1;fixedSize=1;" vertex="1" parent="1">
          <mxGeometry y="305" width="160" height="60" as="geometry" />
        </mxCell>
        <mxCell id="TD08Gxz-DztOjU-eSoD3-30" style="edgeStyle=orthogonalEdgeStyle;rounded=0;orthogonalLoop=1;jettySize=auto;html=1;" edge="1" parent="1" source="TD08Gxz-DztOjU-eSoD3-3">
          <mxGeometry relative="1" as="geometry">
            <mxPoint x="270" y="800" as="targetPoint" />
            <Array as="points">
              <mxPoint x="80" y="800" />
            </Array>
          </mxGeometry>
        </mxCell>
        <mxCell id="TD08Gxz-DztOjU-eSoD3-3" value="Выводим &lt;br&gt;подтверждение &lt;br&gt;о переходе в каталог" style="shape=parallelogram;perimeter=parallelogramPerimeter;whiteSpace=wrap;html=1;fixedSize=1;" vertex="1" parent="1">
          <mxGeometry y="445" width="160" height="60" as="geometry" />
        </mxCell>
        <mxCell id="TD08Gxz-DztOjU-eSoD3-8" value="" style="edgeStyle=orthogonalEdgeStyle;rounded=0;orthogonalLoop=1;jettySize=auto;html=1;" edge="1" parent="1" source="TD08Gxz-DztOjU-eSoD3-5" target="TD08Gxz-DztOjU-eSoD3-7">
          <mxGeometry relative="1" as="geometry" />
        </mxCell>
        <mxCell id="TD08Gxz-DztOjU-eSoD3-10" value="" style="edgeStyle=orthogonalEdgeStyle;rounded=0;orthogonalLoop=1;jettySize=auto;html=1;" edge="1" parent="1" source="TD08Gxz-DztOjU-eSoD3-5" target="TD08Gxz-DztOjU-eSoD3-9">
          <mxGeometry relative="1" as="geometry" />
        </mxCell>
        <mxCell id="TD08Gxz-DztOjU-eSoD3-5" value="&lt;font style=&quot;font-size: 14px;&quot;&gt;user2&lt;/font&gt;" style="rhombus;whiteSpace=wrap;html=1;" vertex="1" parent="1">
          <mxGeometry x="410" y="235" width="120" height="80" as="geometry" />
        </mxCell>
        <mxCell id="TD08Gxz-DztOjU-eSoD3-6" value="" style="edgeStyle=orthogonalEdgeStyle;rounded=0;orthogonalLoop=1;jettySize=auto;html=1;entryX=0.5;entryY=0;entryDx=0;entryDy=0;" edge="1" parent="1" source="iM0jPdQqgRtytacEko40-4" target="TD08Gxz-DztOjU-eSoD3-5">
          <mxGeometry relative="1" as="geometry">
            <mxPoint x="470" y="195" as="sourcePoint" />
            <mxPoint x="610" y="170" as="targetPoint" />
          </mxGeometry>
        </mxCell>
        <mxCell id="iM0jPdQqgRtytacEko40-41" value="&lt;span style=&quot;color: rgb(0, 0, 0); font-family: Helvetica; font-size: 12px; font-style: normal; font-variant-ligatures: normal; font-variant-caps: normal; font-weight: 400; letter-spacing: normal; orphans: 2; text-align: center; text-indent: 0px; text-transform: none; widows: 2; word-spacing: 0px; -webkit-text-stroke-width: 0px; background-color: rgb(251, 251, 251); text-decoration-thickness: initial; text-decoration-style: initial; text-decoration-color: initial; float: none; display: inline !important;&quot;&gt;Нет&lt;/span&gt;" style="text;whiteSpace=wrap;html=1;" parent="1" vertex="1">
          <mxGeometry x="370" y="155" width="110" height="32" as="geometry" />
        </mxCell>
        <mxCell id="TD08Gxz-DztOjU-eSoD3-12" value="" style="edgeStyle=orthogonalEdgeStyle;rounded=0;orthogonalLoop=1;jettySize=auto;html=1;" edge="1" parent="1" source="TD08Gxz-DztOjU-eSoD3-7" target="TD08Gxz-DztOjU-eSoD3-11">
          <mxGeometry relative="1" as="geometry" />
        </mxCell>
        <mxCell id="TD08Gxz-DztOjU-eSoD3-7" value="Переносим пользователя в папку user2" style="whiteSpace=wrap;html=1;" vertex="1" parent="1">
          <mxGeometry x="210" y="245" width="120" height="60" as="geometry" />
        </mxCell>
        <mxCell id="TD08Gxz-DztOjU-eSoD3-18" value="" style="edgeStyle=orthogonalEdgeStyle;rounded=0;orthogonalLoop=1;jettySize=auto;html=1;" edge="1" parent="1" source="TD08Gxz-DztOjU-eSoD3-9" target="TD08Gxz-DztOjU-eSoD3-17">
          <mxGeometry relative="1" as="geometry" />
        </mxCell>
        <mxCell id="TD08Gxz-DztOjU-eSoD3-25" value="" style="edgeStyle=orthogonalEdgeStyle;rounded=0;orthogonalLoop=1;jettySize=auto;html=1;" edge="1" parent="1" source="TD08Gxz-DztOjU-eSoD3-9" target="TD08Gxz-DztOjU-eSoD3-24">
          <mxGeometry relative="1" as="geometry" />
        </mxCell>
        <mxCell id="TD08Gxz-DztOjU-eSoD3-9" value="&lt;font style=&quot;font-size: 14px;&quot;&gt;user3&lt;/font&gt;" style="rhombus;whiteSpace=wrap;html=1;" vertex="1" parent="1">
          <mxGeometry x="540" y="335" width="120" height="80" as="geometry" />
        </mxCell>
        <mxCell id="TD08Gxz-DztOjU-eSoD3-14" value="" style="edgeStyle=orthogonalEdgeStyle;rounded=0;orthogonalLoop=1;jettySize=auto;html=1;" edge="1" parent="1" source="TD08Gxz-DztOjU-eSoD3-11" target="TD08Gxz-DztOjU-eSoD3-13">
          <mxGeometry relative="1" as="geometry" />
        </mxCell>
        <mxCell id="TD08Gxz-DztOjU-eSoD3-11" value="Выводим надпись&lt;br style=&quot;border-color: var(--border-color);&quot;&gt;&quot;Welcome, user2&quot;" style="shape=parallelogram;perimeter=parallelogramPerimeter;whiteSpace=wrap;html=1;fixedSize=1;" vertex="1" parent="1">
          <mxGeometry x="190" y="385" width="160" height="60" as="geometry" />
        </mxCell>
        <mxCell id="TD08Gxz-DztOjU-eSoD3-29" style="edgeStyle=orthogonalEdgeStyle;rounded=0;orthogonalLoop=1;jettySize=auto;html=1;exitX=0.5;exitY=1;exitDx=0;exitDy=0;entryX=-0.05;entryY=0.604;entryDx=0;entryDy=0;entryPerimeter=0;" edge="1" parent="1" source="TD08Gxz-DztOjU-eSoD3-13" target="TD08Gxz-DztOjU-eSoD3-27">
          <mxGeometry relative="1" as="geometry">
            <mxPoint x="340" y="790" as="targetPoint" />
            <Array as="points">
              <mxPoint x="270" y="800" />
            </Array>
          </mxGeometry>
        </mxCell>
        <mxCell id="TD08Gxz-DztOjU-eSoD3-13" value="Выводим&lt;br style=&quot;border-color: var(--border-color);&quot;&gt;подтверждение&lt;br style=&quot;border-color: var(--border-color);&quot;&gt;о переходе в каталог" style="shape=parallelogram;perimeter=parallelogramPerimeter;whiteSpace=wrap;html=1;fixedSize=1;" vertex="1" parent="1">
          <mxGeometry x="190" y="525" width="160" height="60" as="geometry" />
        </mxCell>
        <mxCell id="TD08Gxz-DztOjU-eSoD3-15" value="Да" style="text;html=1;align=center;verticalAlign=middle;resizable=0;points=[];autosize=1;strokeColor=none;fillColor=none;" vertex="1" parent="1">
          <mxGeometry x="360" y="245" width="40" height="30" as="geometry" />
        </mxCell>
        <mxCell id="TD08Gxz-DztOjU-eSoD3-16" value="Нет" style="text;html=1;align=center;verticalAlign=middle;resizable=0;points=[];autosize=1;strokeColor=none;fillColor=none;" vertex="1" parent="1">
          <mxGeometry x="540" y="245" width="40" height="30" as="geometry" />
        </mxCell>
        <mxCell id="TD08Gxz-DztOjU-eSoD3-20" value="" style="edgeStyle=orthogonalEdgeStyle;rounded=0;orthogonalLoop=1;jettySize=auto;html=1;" edge="1" parent="1" source="TD08Gxz-DztOjU-eSoD3-17" target="TD08Gxz-DztOjU-eSoD3-19">
          <mxGeometry relative="1" as="geometry" />
        </mxCell>
        <mxCell id="TD08Gxz-DztOjU-eSoD3-17" value="Переносим пользователя в папку user3" style="whiteSpace=wrap;html=1;" vertex="1" parent="1">
          <mxGeometry x="380" y="345" width="120" height="60" as="geometry" />
        </mxCell>
        <mxCell id="TD08Gxz-DztOjU-eSoD3-22" value="" style="edgeStyle=orthogonalEdgeStyle;rounded=0;orthogonalLoop=1;jettySize=auto;html=1;" edge="1" parent="1" source="TD08Gxz-DztOjU-eSoD3-19" target="TD08Gxz-DztOjU-eSoD3-21">
          <mxGeometry relative="1" as="geometry" />
        </mxCell>
        <mxCell id="TD08Gxz-DztOjU-eSoD3-19" value="Выводим надпись&lt;br style=&quot;border-color: var(--border-color);&quot;&gt;&quot;Welcome, user3&quot;" style="shape=parallelogram;perimeter=parallelogramPerimeter;whiteSpace=wrap;html=1;fixedSize=1;" vertex="1" parent="1">
          <mxGeometry x="360" y="485" width="160" height="60" as="geometry" />
        </mxCell>
        <mxCell id="TD08Gxz-DztOjU-eSoD3-28" value="" style="edgeStyle=orthogonalEdgeStyle;rounded=0;orthogonalLoop=1;jettySize=auto;html=1;" edge="1" parent="1" source="TD08Gxz-DztOjU-eSoD3-21" target="TD08Gxz-DztOjU-eSoD3-27">
          <mxGeometry relative="1" as="geometry" />
        </mxCell>
        <mxCell id="TD08Gxz-DztOjU-eSoD3-21" value="Выводим&lt;br style=&quot;border-color: var(--border-color);&quot;&gt;подтверждение&lt;br style=&quot;border-color: var(--border-color);&quot;&gt;о переходе в каталог" style="shape=parallelogram;perimeter=parallelogramPerimeter;whiteSpace=wrap;html=1;fixedSize=1;" vertex="1" parent="1">
          <mxGeometry x="360" y="625" width="160" height="60" as="geometry" />
        </mxCell>
        <mxCell id="TD08Gxz-DztOjU-eSoD3-23" value="Да" style="text;html=1;align=center;verticalAlign=middle;resizable=0;points=[];autosize=1;strokeColor=none;fillColor=none;" vertex="1" parent="1">
          <mxGeometry x="510" y="345" width="40" height="30" as="geometry" />
        </mxCell>
        <mxCell id="TD08Gxz-DztOjU-eSoD3-24" value="&lt;span style=&quot;font-size: 14px;&quot;&gt;...&lt;/span&gt;" style="rhombus;whiteSpace=wrap;html=1;" vertex="1" parent="1">
          <mxGeometry x="670" y="425" width="120" height="80" as="geometry" />
        </mxCell>
        <mxCell id="TD08Gxz-DztOjU-eSoD3-26" value="Нет" style="text;html=1;align=center;verticalAlign=middle;resizable=0;points=[];autosize=1;strokeColor=none;fillColor=none;" vertex="1" parent="1">
          <mxGeometry x="670" y="345" width="40" height="30" as="geometry" />
        </mxCell>
        <mxCell id="TD08Gxz-DztOjU-eSoD3-33" style="edgeStyle=orthogonalEdgeStyle;rounded=0;orthogonalLoop=1;jettySize=auto;html=1;" edge="1" parent="1" source="TD08Gxz-DztOjU-eSoD3-27">
          <mxGeometry relative="1" as="geometry">
            <mxPoint x="360" y="840" as="targetPoint" />
          </mxGeometry>
        </mxCell>
        <mxCell id="TD08Gxz-DztOjU-eSoD3-27" value="" style="shape=waypoint;sketch=0;size=6;pointerEvents=1;points=[];fillColor=default;resizable=0;rotatable=0;perimeter=centerPerimeter;snapToPoint=1;" vertex="1" parent="1">
          <mxGeometry x="350" y="790" width="20" height="20" as="geometry" />
        </mxCell>
        <mxCell id="TD08Gxz-DztOjU-eSoD3-32" value="" style="shape=waypoint;sketch=0;size=6;pointerEvents=1;points=[];fillColor=default;resizable=0;rotatable=0;perimeter=centerPerimeter;snapToPoint=1;" vertex="1" parent="1">
          <mxGeometry x="260" y="790" width="20" height="20" as="geometry" />
        </mxCell>
      </root>
    </mxGraphModel>
  </diagram>
</mxfile>
